<?xml version="1.0" standalone="no"?>
<!DOCTYPE svg PUBLIC "-//W3C//DTD SVG 20010904//EN"
 "http://www.w3.org/TR/2001/REC-SVG-20010904/DTD/svg10.dtd">
<svg version="1.0" xmlns="http://www.w3.org/2000/svg"
 width="256.000000pt" height="256.000000pt" viewBox="0 0 256.000000 256.000000"
 preserveAspectRatio="xMidYMid meet">
<metadata>
Created by potrace 1.11, written by Peter Selinger 2001-2013
</metadata>
<g transform="translate(0.000000,256.000000) scale(0.100000,-0.100000)"
fill="#000000" stroke="none">
<path d="M1260 2534 c-19 -14 -68 -41 -107 -62 -40 -20 -73 -40 -73 -44 0 -4
-4 -8 -9 -8 -5 0 -29 -12 -55 -26 l-47 -26 68 -40 c37 -22 93 -53 123 -70 86
-45 124 -69 132 -82 4 -6 8 -8 8 -4 0 4 45 -20 101 -52 55 -33 104 -60 109
-60 5 0 15 -6 22 -12 7 -7 29 -21 48 -31 19 -10 46 -26 58 -36 l24 -17 0 -580
c0 -318 2 -582 4 -586 4 -6 86 38 154 82 8 6 22 13 30 17 8 4 17 9 20 12 3 3
19 13 35 21 l30 16 0 624 0 624 -60 34 c-133 76 -200 117 -203 124 -2 5 -9 8
-15 8 -7 0 -49 23 -95 50 -46 28 -85 50 -87 50 -2 0 -41 23 -88 50 -47 28 -87
50 -89 50 -1 -1 -19 -12 -38 -26z"/>
<path d="M812 2277 c-12 -6 -22 -14 -22 -19 0 -4 -6 -8 -14 -8 -7 0 -25 -9
-40 -21 -14 -11 -26 -18 -26 -14 0 3 -25 -10 -55 -30 -31 -19 -58 -35 -60 -35
-3 0 -38 -19 -78 -43 -120 -72 -172 -101 -176 -98 -2 1 -7 -2 -10 -7 -3 -5
-25 -19 -48 -31 -23 -11 -45 -25 -48 -31 -4 -6 -11 -8 -16 -5 -5 4 -9 -71 -9
-190 l0 -196 33 17 c17 9 46 26 62 38 17 11 32 20 35 20 3 -1 42 20 88 47 45
27 86 49 90 49 5 0 18 9 30 20 12 12 22 19 22 16 0 -3 45 21 99 53 217 129
217 129 264 98 26 -17 40 -25 152 -87 33 -19 62 -36 65 -39 3 -4 30 -19 60
-35 30 -16 57 -32 60 -35 3 -3 21 -14 40 -25 72 -39 126 -70 160 -92 25 -18
36 -20 41 -11 3 6 5 79 5 160 l-1 148 -50 28 c-65 36 -109 61 -170 99 -42 26
-300 177 -424 248 -28 16 -41 19 -59 11z"/>
<path d="M2066 1572 c1 -295 2 -541 3 -545 0 -5 22 4 49 19 68 41 120 70 177
100 28 15 62 35 78 46 l27 19 0 357 0 357 -22 15 c-13 8 -36 22 -53 30 -53 27
-130 74 -133 82 -2 5 -7 6 -11 4 -4 -3 -27 8 -52 25 -24 16 -48 29 -54 29 -7
0 -10 -185 -9 -538z"/>
<path d="M814 1728 l-131 -80 1 -626 1 -627 37 -20 c20 -11 56 -32 80 -46 119
-71 259 -149 268 -149 5 0 10 -3 10 -8 0 -4 28 -22 63 -40 65 -34 85 -46 128
-74 26 -18 29 -17 81 10 29 15 55 30 58 33 3 3 21 14 40 24 19 10 37 21 40 24
3 3 32 20 65 38 33 18 60 38 60 45 0 10 -226 147 -365 222 -75 40 -95 52 -100
57 -3 3 -36 23 -75 44 -38 21 -72 41 -75 44 -3 3 -14 11 -25 17 -19 11 -20 22
-20 225 0 118 4 220 8 227 5 6 6 12 1 12 -11 0 -11 211 0 228 4 7 4 12 -1 12
-4 0 -8 108 -8 241 0 132 -2 242 -5 244 -3 2 -64 -33 -136 -77z"/>
<path d="M486 1550 c-16 -10 -34 -16 -40 -13 -6 3 -8 2 -3 -2 4 -5 -14 -20
-40 -35 -27 -15 -79 -45 -118 -67 l-70 -41 -3 -360 -2 -360 32 -20 c18 -11 49
-29 68 -40 19 -11 79 -45 132 -76 53 -31 98 -56 100 -56 2 0 3 245 3 545 0
599 4 565 -59 525z"/>
<path d="M2375 1032 c-11 -2 -27 -9 -35 -16 -8 -7 -40 -25 -70 -40 -30 -16
-63 -36 -72 -44 -10 -8 -18 -11 -18 -6 0 5 -4 5 -8 -1 -8 -11 -66 -46 -122
-73 -19 -9 -39 -21 -45 -25 -15 -12 -183 -107 -244 -138 l-53 -27 -127 74
c-69 41 -133 78 -141 84 -8 5 -34 19 -57 31 -24 13 -43 26 -43 30 0 3 -8 9
-17 12 -19 6 -88 45 -168 95 -27 17 -52 29 -55 27 -4 -2 -6 -29 -5 -60 1 -30
-3 -55 -7 -55 -5 0 -6 -6 -2 -12 5 -7 8 -52 9 -101 l0 -88 50 -28 c68 -38 477
-275 547 -318 66 -39 93 -47 111 -30 13 12 29 22 106 65 25 13 57 32 71 42 14
9 106 62 205 119 99 56 188 108 198 115 16 12 17 31 15 192 -3 173 -4 179 -23
176z"/>
</g>
</svg>
